Coordinates
version=1
nRows=12
nColumns=33
inDegrees=yes

Units are S.I. units (second, meters, Newtons, ...)
Angles are in degrees.

endheader
time	ground_thorax_rot_x	ground_thorax_rot_y	ground_thorax_rot_z	ground_thorax_tx	ground_thorax_ty	ground_thorax_tz	clav_prot_r	clav_elev_r	scapula_abduction_r	scapula_elevation_r	scapula_upward_rot_r	scapula_winging_r	shoulder_elv_r	plane_of_elev_r	axial_rot_r	elbow_flexion_r	pro_sup_r	wrist_flex_r	wrist_dev_r	clav_prot_l	clav_elev_l	scapula_abduction_l	scapula_elevation_l	scapula_upward_rot_l	scapula_winging_l	shoulder_elv_l	plane_of_elev_l	axial_rot_l	elbow_flexion_l	pro_sup_l	wrist_flex_l	wrist_dev_l
      2.62000000	     -2.27770039	      9.39278639	     16.60963423	     -0.12230971	      1.06532809	     -0.00550525	     -2.41449181	     11.90611263	     25.57541177	      2.18680075	     44.94464899	    -13.59296875	     72.08985955	     36.82433454	    -33.42962457	     30.29679776	     48.25132975	      2.62932588	     -1.80416938	     11.92361242	     -2.85866903	    -20.50712991	     -3.40741081	     -2.71278841	      6.61817946	     34.25200724	     58.72364876	    -25.50109446	    106.59682516	     34.89132676	    -17.54083389	    -17.17368332
      2.63000000	     -2.21725430	      9.31858666	     16.45321846	     -0.12181597	      1.06473671	     -0.00591770	     -2.55468326	     12.04092843	     25.22522510	      2.30245150	     44.88353931	    -13.53905194	     72.12985839	     37.11695747	    -32.80439300	     30.60711197	     48.40796145	      2.94454444	     -1.84425874	     11.81960828	     -2.60037671	    -20.36247848	     -3.57209024	     -2.55979820	      6.61753605	     34.21150663	     58.66023862	    -25.38069112	    106.84275908	     34.87112090	    -17.61015688	    -17.20965654
      2.64000000	     -2.16891318	      9.35069475	     16.33963610	     -0.12142281	      1.06412120	     -0.00642937	     -2.75572528	     12.12319307	     24.94603250	      2.34857443	     45.00000000	    -13.49408784	     72.01912401	     37.43165012	    -32.38095719	     30.30952097	     48.57572699	      3.28329106	     -1.87501110	     11.79468636	     -2.52963404	    -20.37338907	     -3.57443018	     -2.41968864	      6.65241247	     34.04650176	     58.59692600	    -25.51563438	    106.98358838	     34.92757464	    -17.62284055	    -17.31292444
      2.65000000	     -2.23125756	      9.33262637	     16.23176089	     -0.12127056	      1.06364523	     -0.00698772	     -2.72686060	     12.15843145	     24.94859033	      2.38374075	     44.95518960	    -13.50032805	     71.94986667	     37.50002985	    -32.33116593	     30.27912442	     48.58239194	      3.29698913	     -1.86424261	     11.80356520	     -2.52181470	    -20.39240778	     -3.57625218	     -2.40880308	      6.66192062	     34.07818185	     58.59038729	    -25.57769309	    106.99605293	     34.93603420	    -17.61624379	    -17.32562143
      2.66000000	     -2.28773659	      9.27127167	     16.12267798	     -0.12112761	      1.06330412	     -0.00766656	     -2.70998929	     12.21220874	     24.91073904	      2.43553931	     44.89752745	    -13.49605768	     71.85313944	     37.55644996	    -32.26262442	     30.17880807	     48.58535704	      3.30337933	     -1.83613179	     11.80762190	     -2.50056048	    -20.40373171	     -3.58997643	     -2.39700182	      6.67752334	     34.13594471	     58.55941912	    -25.68058136	    107.05448215	     34.95367744	    -17.60830250	    -17.35697365
      2.67000000	     -2.28759456	      9.22309956	     16.19900533	     -0.12075799	      1.06306100	     -0.00789182	     -2.89493541	     12.27800455	     24.63253202	      2.47340701	     44.98097802	    -13.45022122	     71.34716846	     37.97191652	    -32.18487248	     29.62996935	     48.39304149	      3.21795995	     -1.65955377	     11.73847085	     -2.40600638	    -20.26037526	     -3.68607853	     -2.42074031	      6.62908345	     34.00993236	     58.36585782	    -25.72911400	    107.23757673	     35.10581947	    -17.57509949	    -17.53741252
      2.68000000	     -2.32104673	      9.26382088	     16.07827758	     -0.12059421	      1.06281468	     -0.00835369	     -2.85721014	     12.28682220	     24.62743969	      2.49194662	     44.90709032	    -13.44824237	     71.28025282	     37.97048584	    -32.16937061	     29.59453154	     48.39274472	      3.21693007	     -1.65131890	     11.74109453	     -2.40706192	    -20.26168365	     -3.68580219	     -2.42335606	      6.62235327	     34.01430140	     58.36499682	    -25.74404046	    107.25111710	     35.10890122	    -17.57309514	    -17.54278449
      2.69000000	     -2.44087033	      9.20540460	     15.94352167	     -0.12036613	      1.06275801	     -0.00884117	     -2.82972200	     12.32064562	     24.62332271	      2.52700662	     44.85764387	    -13.45336295	     71.17666821	     37.97478930	    -32.18694235	     29.48557074	     48.35398087	      3.18895502	     -1.62768479	     11.76487159	     -2.44928495	    -20.29298292	     -3.66453961	     -2.46076182	      6.63307422	     34.09239994	     58.33482240	    -25.92677282	    107.35087545	     35.14789736	    -17.54538659	    -17.59970643
      2.70000000	     -2.47523765	      9.26255068	     15.83353338	     -0.12014264	      1.06264558	     -0.00915730	     -2.79093314	     12.32711489	     24.62134335	      2.54313639	     44.78451618	    -13.45221736	     71.10522426	     37.97618441	    -32.17730182	     29.44885165	     48.35023705	      3.18569876	     -1.61906166	     11.76456508	     -2.44968882	    -20.28859335	     -3.66752644	     -2.46875029	      6.62507426	     34.09468651	     58.32687177	    -25.93962839	    107.36130334	     35.15303528	    -17.54211054	    -17.60596954
      2.71000000	     -2.70763069	      9.28728884	     15.84239310	     -0.11922461	      1.06373391	     -0.00962435	     -3.44470211	     12.05415037	     23.63268838	      2.29222435	     44.96295830	    -13.22922136	     69.96704603	     38.47375925	    -32.41853219	     29.51823312	     47.13045377	      2.79262979	     -1.52338500	     11.42400083	     -2.83378659	    -19.53823985	     -3.52905862	     -2.90878080	      6.17640342	     33.84628465	     58.45224213	    -26.66538650	    107.47555533	     36.32447484	    -16.68877003	    -18.47238014
      2.72000000	     -2.73799648	      9.33520006	     15.73857386	     -0.11896436	      1.06369853	     -0.00987411	     -3.40578127	     12.06801625	     23.63397026	      2.31421831	     44.89396015	    -13.22935082	     69.90533761	     38.47998194	    -32.39716767	     29.48257631	     47.13437325	      2.79388119	     -1.51591226	     11.42375839	     -2.83177531	    -19.53872084	     -3.52936935	     -2.90534650	      6.17507482	     33.85086427	     58.45703968	    -26.67926190	    107.47194341	     36.32731374	    -16.68322545	    -18.47265428
      2.73000000	     -2.80037768	      9.32339966	     15.65834468	     -0.11869398	      1.06368066	     -0.01013707	     -3.35963899	     12.12930546	     23.63236602	      2.37534074	     44.81866508	    -13.23826713	     69.83032020	     38.51585530	    -32.32550396	     29.40911396	     47.15011556	      2.80366013	     -1.50620884	     11.43010702	     -2.83388592	    -19.56082756	     -3.51743474	     -2.88294247	      6.18975917	     33.90828937	     58.47819471	    -26.80278350	    107.42598195	     36.35841532	    -16.62842846	    -18.46983447
